<?xml version="1.0" standalone="no"?>
<!DOCTYPE svg PUBLIC "-//W3C//DTD SVG 20010904//EN"
 "http://www.w3.org/TR/2001/REC-SVG-20010904/DTD/svg10.dtd">
<svg version="1.0" xmlns="http://www.w3.org/2000/svg"
 width="1024.000000pt" height="1536.000000pt" viewBox="0 0 1024.000000 1536.000000"
 preserveAspectRatio="xMidYMid meet">

<g transform="translate(0.000000,1536.000000) scale(0.100000,-0.100000)"
fill="#000000" stroke="none">
<path d="M4280 12169 c-328 -13 -625 -59 -885 -137 -118 -36 -259 -89 -294
-111 -9 -6 -38 3 -85 24 -184 85 -405 87 -597 6 -175 -74 -338 -243 -414 -428
-49 -121 -69 -321 -45 -443 6 -31 5 -50 -3 -62 -7 -9 -45 -59 -85 -112 -152
-199 -251 -384 -386 -718 -218 -542 -341 -1081 -377 -1653 -15 -239 -6 -789
15 -1015 43 -445 132 -883 241 -1185 41 -114 122 -304 138 -323 13 -16 13 -16
-65 -29 -125 -20 -244 -97 -289 -185 -58 -113 15 -245 153 -278 104 -25 341 9
449 66 l30 15 76 -71 c100 -93 216 -168 387 -251 209 -100 457 -176 733 -224
l103 -18 5 -36 c28 -178 57 -254 118 -306 45 -39 120 -60 175 -50 111 20 189
121 222 291 l12 59 441 0 c472 0 563 6 912 60 221 35 653 136 767 180 13 5 17
-2 23 -37 19 -113 83 -216 152 -245 45 -18 121 -16 168 6 106 48 168 174 182
368 l6 92 77 50 c42 27 112 87 157 135 64 68 91 106 132 188 97 198 119 376
102 832 -13 336 -14 895 -3 913 13 20 126 -53 191 -122 64 -69 102 -136 161
-285 25 -63 54 -118 73 -137 104 -109 269 -33 296 135 27 169 -84 440 -241
588 -102 96 -248 181 -356 206 -29 7 -52 18 -52 24 0 6 27 65 59 131 33 66 67
145 76 174 16 51 21 56 89 96 168 97 309 252 401 438 209 424 125 911 -214
1238 l-90 87 -16 98 c-33 204 -85 371 -167 538 l-50 102 36 50 c92 128 143
300 133 453 -18 276 -214 524 -493 619 -187 65 -405 40 -565 -62 l-53 -34
-109 49 c-414 185 -951 269 -1557 246z m660 -124 c343 -42 616 -111 846 -215
l71 -31 -52 -78 c-63 -94 -95 -181 -102 -281 -5 -68 -3 -77 16 -95 21 -18 25
-18 49 -4 24 13 28 24 40 98 44 290 300 493 588 467 152 -14 270 -70 385 -185
56 -56 85 -96 112 -151 110 -227 85 -435 -79 -653 -49 -66 -52 -73 -39 -92 34
-48 86 -146 119 -228 44 -104 126 -417 110 -417 -2 0 -24 10 -47 21 -162 83
-409 124 -604 100 -448 -55 -805 -360 -920 -787 -24 -90 -27 -115 -26 -274 0
-157 2 -185 26 -274 94 -352 377 -638 732 -741 190 -55 399 -55 586 -1 44 13
79 21 79 19 0 -3 -25 -57 -56 -121 -61 -128 -86 -200 -108 -307 -36 -175 -40
-262 -36 -720 8 -812 6 -930 -13 -1028 -42 -212 -138 -370 -291 -484 -32 -23
-61 -43 -65 -43 -4 0 -8 26 -10 58 -4 122 -25 157 -79 133 l-25 -12 6 -132
c13 -259 -21 -457 -88 -516 -67 -58 -147 -35 -179 52 -21 55 -44 217 -52 362
-7 120 -16 145 -53 145 -10 0 -26 -8 -35 -19 -14 -16 -16 -37 -14 -147 l3
-129 -145 -41 c-433 -124 -798 -182 -1280 -205 -216 -10 -379 -8 -600 7 l-85
6 -1 164 c-2 192 -5 211 -39 220 -47 12 -51 -4 -58 -184 -17 -424 -71 -579
-195 -559 -49 8 -79 31 -103 78 -41 82 -53 169 -53 413 -1 225 -1 229 -23 243
-20 14 -26 14 -48 -1 -25 -16 -25 -17 -25 -176 0 -135 -2 -160 -15 -160 -39 0
-288 55 -408 90 -458 134 -737 317 -935 614 -265 396 -422 936 -499 1711 -24
250 -24 915 0 1155 24 234 43 350 88 551 95 427 228 823 384 1144 83 171 143
272 240 409 l69 95 23 -41 c63 -111 151 -198 199 -198 28 0 54 25 54 51 0 11
-26 44 -59 75 -109 102 -164 243 -164 424 0 199 62 349 203 490 134 135 267
190 460 190 178 0 320 -59 446 -184 81 -81 123 -155 153 -271 11 -43 26 -82
33 -86 47 -30 94 14 82 78 -23 126 -101 270 -197 360 l-55 52 42 17 c212 86
533 157 826 183 69 6 143 13 165 15 95 9 607 -4 725 -19z m1790 -1865 c261
-64 491 -251 610 -495 76 -155 94 -239 94 -425 0 -190 -19 -272 -99 -435 -202
-412 -668 -625 -1118 -511 -333 85 -592 337 -689 673 -20 68 -23 101 -23 253
0 153 3 185 23 254 106 368 395 629 775 702 102 19 317 11 427 -16z m171
-2374 c84 -33 193 -111 269 -193 119 -128 205 -342 186 -465 -10 -64 -47 -108
-90 -108 -43 0 -58 18 -96 115 -66 167 -119 255 -205 340 -57 57 -100 90 -150
115 -38 19 -72 35 -74 37 -4 3 16 145 25 176 7 22 50 16 135 -17z m-5324
-1933 c10 -16 44 -65 76 -111 33 -46 57 -85 55 -87 -13 -12 -177 -56 -238 -64
-122 -15 -197 5 -236 65 -14 21 -15 31 -5 64 18 61 95 115 204 145 86 23 124
20 144 -12z"/>
<path d="M2572 11507 c-75 -42 -80 -173 -10 -253 17 -20 57 -53 87 -74 31 -21
67 -49 80 -63 41 -44 51 -27 51 86 0 58 4 97 9 92 5 -6 18 -36 30 -68 35 -95
49 -117 75 -117 44 0 51 23 31 98 -23 87 -66 172 -113 224 -65 73 -179 108
-240 75z"/>
<path d="M6427 11496 c-92 -34 -184 -124 -218 -215 -26 -71 -18 -106 25 -106
30 0 31 1 67 78 22 47 23 47 36 25 7 -13 12 -40 13 -61 0 -51 25 -60 58 -21
14 16 57 52 96 80 112 79 142 143 94 198 -29 33 -114 43 -171 22z"/>
<path d="M3722 10300 c-418 -59 -776 -339 -919 -719 -90 -238 -97 -530 -18
-760 121 -356 421 -631 793 -728 193 -50 446 -41 637 23 376 126 658 419 763
794 25 88 27 110 27 285 0 177 -2 197 -27 288 -53 190 -136 334 -274 477 -163
169 -357 275 -594 325 -90 19 -301 27 -388 15z m334 -105 c407 -70 732 -365
829 -750 100 -397 -50 -819 -377 -1065 -303 -229 -694 -283 -1046 -144 -128
51 -221 113 -333 224 -158 157 -240 305 -284 516 -21 101 -22 303 -1 399 91
425 421 742 851 819 107 19 253 19 361 1z"/>
<path d="M4083 9166 c-107 -35 -185 -106 -236 -215 -28 -59 -31 -76 -31 -157
-1 -85 2 -96 37 -167 41 -83 97 -141 175 -179 40 -20 63 -23 152 -23 96 0 110
3 164 29 79 39 140 102 179 184 29 61 32 76 32 162 0 86 -3 101 -32 162 -38
81 -102 146 -180 184 -67 33 -191 43 -260 20z m289 -247 c27 -15 51 -74 43
-110 -9 -40 -58 -79 -101 -79 -52 0 -96 44 -98 99 -1 36 4 47 32 72 35 31 85
39 124 18z"/>
<path d="M5266 8449 c-75 -15 -187 -71 -221 -110 -17 -19 -46 -41 -65 -49
-163 -65 -274 -243 -249 -399 10 -67 30 -101 89 -154 56 -50 139 -84 231 -94
l57 -6 4 -76 c9 -141 79 -243 189 -275 66 -20 92 -20 160 0 40 12 67 29 105
68 66 66 94 137 97 252 l2 83 65 20 c89 27 168 77 204 128 34 50 45 131 27
200 -17 63 -89 162 -145 200 -31 21 -56 48 -67 72 -22 50 -80 96 -153 122 -71
25 -249 34 -330 18z m-6 -133 c0 -2 -8 -10 -17 -17 -16 -13 -17 -12 -4 4 13
16 21 21 21 13z m366 -94 c-17 -16 -18 -16 -5 5 7 12 15 20 18 17 3 -2 -3 -12
-13 -22z m-606 -48 c0 -28 40 -89 73 -111 70 -47 226 -78 332 -67 103 11 210
50 254 92 21 20 43 46 48 56 11 19 12 19 51 -6 77 -51 115 -176 74 -243 -23
-37 -97 -78 -177 -99 -104 -26 -344 -50 -510 -51 -146 0 -164 2 -210 23 -62
29 -111 75 -126 120 -29 88 45 234 146 286 38 20 45 20 45 0z m550 -654 c-25
-100 -103 -165 -197 -163 -104 1 -169 78 -180 214 l-6 69 69 0 c38 0 79 3 92
6 20 6 22 3 22 -37 0 -55 11 -72 41 -67 22 3 24 9 27 59 l3 56 67 9 67 9 3
-55 c2 -30 -2 -75 -8 -100z"/>
<path d="M2576 7628 c-53 -83 -68 -391 -28 -543 49 -179 143 -314 307 -441
l76 -58 -58 -32 c-32 -18 -70 -39 -85 -48 -33 -18 -37 -57 -10 -84 17 -17 609
-220 872 -298 152 -46 247 -52 280 -18 38 38 42 88 25 357 -24 392 -42 581
-59 620 -17 42 -71 80 -102 72 -12 -2 -91 -48 -177 -101 l-156 -95 -90 76
c-108 91 -163 153 -196 220 -38 77 -58 171 -51 236 4 47 2 59 -13 73 -25 23
-48 20 -67 -9 -23 -35 -15 -177 15 -265 44 -127 110 -211 275 -350 46 -38 95
-87 110 -108 90 -131 -67 -278 -260 -242 -155 29 -344 163 -459 325 -38 53
-79 166 -96 269 -15 88 -7 270 17 363 14 59 15 74 5 87 -19 23 -58 20 -75 -6z
m1238 -594 c9 -23 46 -577 49 -729 l2 -130 -30 3 c-73 9 -915 276 -915 290 1
4 26 22 56 39 51 30 58 31 82 19 84 -42 248 -47 333 -9 100 44 179 150 179
238 0 22 -9 60 -20 84 -11 24 -20 44 -20 46 0 1 42 28 93 58 50 31 108 67 127
81 41 30 56 32 64 10z"/>
<path d="M6563 9180 c-112 -23 -212 -103 -261 -208 -24 -50 -27 -69 -27 -157
0 -88 3 -107 27 -157 37 -81 105 -149 181 -184 53 -25 75 -29 152 -29 82 0 96
3 157 33 81 39 148 112 180 192 32 79 31 203 -2 285 -32 81 -123 174 -200 202
-68 26 -151 35 -207 23z m136 -264 c48 -25 63 -83 36 -136 -30 -59 -104 -69
-157 -21 -28 25 -33 36 -32 72 2 78 81 122 153 85z"/>
<path d="M7750 5483 c-62 -28 -977 -395 -1476 -591 -601 -237 -874 -348 -1299
-527 -640 -270 -768 -326 -787 -343 -16 -13 -18 -36 -18 -191 0 -120 4 -184
13 -200 8 -16 132 -94 381 -238 342 -197 755 -443 1726 -1028 214 -128 385
-225 399 -225 13 0 87 34 165 77 264 143 501 270 871 468 204 109 451 242 550
295 99 54 515 276 925 495 880 469 973 520 991 542 11 12 14 55 14 172 l0 156
-355 183 c-195 100 -499 256 -675 346 -176 90 -412 212 -525 271 -226 119
-335 172 -515 247 -110 47 -311 119 -324 117 -4 0 -31 -12 -61 -26z m367 -189
c176 -75 369 -170 775 -382 477 -248 956 -496 1067 -552 l84 -42 -119 -65
c-65 -35 -389 -199 -719 -363 -680 -338 -1887 -948 -1985 -1002 -131 -73 -512
-268 -523 -268 -35 0 -444 235 -942 540 -302 185 -655 395 -1178 700 -125 73
-227 134 -225 135 2 2 107 47 233 100 597 252 997 417 1420 585 935 372 1760
702 1784 715 22 11 36 9 123 -21 53 -19 145 -55 205 -80z m1985 -1147 l-7 -79
-195 -104 c-107 -58 -319 -171 -470 -251 -259 -137 -761 -406 -860 -461 -25
-13 -301 -162 -615 -330 -313 -167 -711 -381 -883 -473 -172 -93 -315 -169
-318 -169 -2 0 -3 57 -2 126 l3 126 405 209 c223 116 695 356 1050 536 355
179 650 329 655 333 6 4 19 10 30 14 61 22 -46 -35 -480 -254 -264 -134 -687
-349 -940 -479 -253 -130 -517 -265 -587 -301 l-128 -65 0 -118 0 -119 43 25
c53 31 347 190 632 342 217 116 292 156 410 220 33 18 105 56 160 85 94 50
182 97 655 352 333 180 597 321 805 431 110 58 234 124 275 146 41 23 137 74
212 114 l138 72 0 68 c0 37 -3 67 -6 67 -4 0 -122 -60 -263 -134 -141 -74
-339 -174 -441 -223 -102 -48 -245 -118 -319 -155 -74 -37 -137 -66 -139 -63
-3 3 134 72 304 155 318 154 576 284 769 388 61 33 111 57 112 53 2 -3 -1 -41
-5 -84z m-5730 -283 c51 -31 264 -157 473 -279 209 -122 497 -293 640 -380
669 -407 950 -572 1093 -644 l62 -31 0 -125 c0 -69 -2 -125 -4 -125 -8 0 -172
97 -616 365 -777 468 -957 575 -1315 781 -192 111 -368 213 -390 226 l-41 25
-3 121 c-1 67 0 122 3 122 3 0 47 -25 98 -56z"/>
<path d="M7795 5310 c-12 -13 -22 -55 -33 -133 l-15 -115 -38 -11 c-76 -23
-166 -69 -187 -96 -28 -36 -28 -79 0 -105 25 -23 99 -52 180 -70 62 -14 59
-10 73 -110 15 -104 71 -210 112 -210 30 0 101 61 162 139 34 45 67 81 72 81
5 0 35 -11 67 -24 76 -32 159 -56 193 -56 15 0 40 10 55 23 23 20 26 29 20 58
-7 40 -66 167 -97 211 l-21 30 36 77 c41 88 44 109 17 142 -19 23 -23 24 -145
21 l-126 -4 -65 52 c-74 59 -186 120 -219 120 -13 0 -31 -9 -41 -20z"/>
<path d="M7481 4864 c0 -11 3 -14 6 -6 3 7 2 16 -1 19 -3 4 -6 -2 -5 -13z"/>
<path d="M7100 4826 c-25 -13 -157 -74 -295 -136 -137 -63 -258 -120 -268
-129 -12 -10 -17 -24 -14 -40 3 -14 -1 -31 -9 -38 -8 -8 -14 -19 -14 -25 0 -6
8 0 18 12 l18 22 160 -168 c280 -295 282 -297 254 -289 -57 17 -91 44 -220
169 l-135 131 120 -123 c149 -153 187 -181 258 -187 51 -5 61 -2 218 76 90 45
237 117 326 159 159 77 190 100 177 135 -4 9 -75 76 -159 148 -83 73 -195 171
-247 220 -106 96 -116 100 -188 63z"/>
<path d="M7499 4793 c12 -23 77 -73 96 -73 5 0 -6 9 -25 21 -19 11 -46 32 -58
47 -20 23 -22 23 -13 5z"/>
<path d="M7675 4734 l-70 -13 65 5 c36 3 69 10 75 15 5 5 7 8 5 8 -3 -1 -36
-8 -75 -15z"/>
<path d="M8436 4604 c-11 -8 -16 -14 -10 -14 13 0 39 18 34 24 -3 2 -14 -2
-24 -10z"/>
<path d="M8830 4605 c-142 -40 -172 -114 -115 -285 53 -162 119 -270 197 -322
101 -69 260 -6 305 121 15 43 21 49 67 65 66 24 139 96 156 153 12 38 11 48
-5 83 -36 79 -113 128 -264 166 -123 32 -266 40 -341 19z"/>
<path d="M8323 4583 c9 -2 25 -2 35 0 9 3 1 5 -18 5 -19 0 -27 -2 -17 -5z"/>
<path d="M7821 4463 c6 -7 17 -13 23 -12 7 0 6 2 -2 6 -6 2 -10 8 -8 12 3 4
-1 8 -9 8 -11 0 -12 -4 -4 -14z"/>
<path d="M6500 4426 c0 -2 8 -10 18 -17 15 -13 16 -12 3 4 -13 16 -21 21 -21
13z"/>
<path d="M6530 4387 c0 -2 14 -16 32 -33 31 -29 31 -29 12 -2 -16 23 -44 45
-44 35z"/>
<path d="M5620 4187 c-124 -62 -297 -146 -385 -186 -88 -40 -164 -77 -169 -81
-15 -15 -9 -61 10 -80 19 -19 105 -60 414 -195 91 -40 253 -111 360 -158 107
-47 207 -89 221 -92 40 -10 62 17 54 69 -12 80 -56 244 -139 521 -64 212 -89
283 -106 297 -12 10 -25 18 -29 18 -3 0 -107 -51 -231 -113z m243 -134 c20
-71 64 -218 96 -328 32 -110 56 -201 52 -203 -4 -1 -72 27 -152 64 -175 80
-605 268 -637 278 -12 4 -22 10 -22 14 0 4 67 35 148 70 81 35 219 101 307
146 88 46 163 84 166 85 3 0 22 -56 42 -126z"/>
<path d="M8701 4284 c0 -11 3 -14 6 -6 3 7 2 16 -1 19 -3 4 -6 -2 -5 -13z"/>
<path d="M8711 4250 c0 -8 4 -22 9 -30 12 -18 12 -2 0 25 -6 13 -9 15 -9 5z"/>
<path d="M7895 4090 c-444 -202 -500 -235 -478 -274 18 -32 325 -356 337 -356
23 0 81 27 391 182 165 82 306 157 313 166 27 35 12 52 -174 199 -102 82 -193
151 -203 154 -10 4 -82 -23 -186 -71z"/>
<path d="M7400 3755 c-6 -8 -10 -19 -8 -24 1 -6 8 1 15 14 13 28 11 31 -7 10z"/>
<path d="M5120 3755 c0 -2 27 -18 60 -35 33 -17 60 -28 60 -25 0 2 -27 18 -60
35 -33 17 -60 28 -60 25z"/>
<path d="M7435 3671 c22 -23 72 -70 110 -104 80 -69 48 -36 -70 73 -44 41 -62
55 -40 31z"/>
<path d="M5310 3656 c0 -2 7 -7 16 -10 8 -3 12 -2 9 4 -6 10 -25 14 -25 6z"/>
<path d="M5351 3637 c8 -10 211 -98 215 -94 2 2 -40 23 -94 46 -114 51 -129
56 -121 48z"/>
<path d="M6579 3577 c-112 -38 -192 -106 -232 -196 -29 -66 -28 -170 3 -236
13 -27 26 -54 29 -60 2 -5 -4 -3 -15 5 -18 14 -18 14 -5 -2 7 -10 17 -16 21
-13 3 2 24 -14 46 -36 90 -94 265 -144 401 -115 292 61 399 343 204 536 -127
126 -298 170 -452 117z m284 -115 c217 -101 229 -318 23 -424 -49 -26 -180
-36 -241 -19 -110 29 -207 125 -221 217 -16 109 63 211 196 255 14 5 60 7 102
5 60 -3 93 -11 141 -34z"/>
<path d="M5605 3526 c17 -7 41 -16 55 -20 20 -5 19 -3 -5 8 -16 7 -41 16 -55
20 -20 5 -19 3 5 -8z"/>
<path d="M7647 3479 c12 -12 24 -21 27 -18 2 2 -8 13 -22 23 l-27 19 22 -24z"/>
<path d="M5760 3472 c8 -5 26 -13 40 -16 17 -5 20 -4 10 2 -8 5 -26 13 -40 16
-17 5 -20 4 -10 -2z"/>
<path d="M5928 3413 c7 -3 16 -2 19 1 4 3 -2 6 -13 5 -11 0 -14 -3 -6 -6z"/>
<path d="M4290 3788 l0 -113 63 -34 c222 -121 801 -463 1625 -959 349 -210
638 -382 643 -382 5 0 9 51 9 113 l0 113 -57 28 c-129 62 -471 262 -893 521
-323 198 -489 297 -770 460 -255 148 -555 325 -597 353 l-23 14 0 -114z"/>
</g>
</svg>
